<?xml version="1.0" encoding="UTF-8"?>
<svg id="Layer_2" data-name="Layer 2" xmlns="http://www.w3.org/2000/svg" viewBox="0 0 18.67 18.67">
  <defs>
    <style>
      .cls-1 {
        fill: #08080f;
      }
    </style>
  </defs>
  <g id="Header">
    <g>
      <path class="cls-1" d="M17.79,12.77c-.23,0-.45,.09-.62,.26-.16,.16-.26,.39-.26,.62v.7c0,.68-.27,1.33-.75,1.81-.48,.48-1.13,.75-1.81,.75H4.32c-.68,0-1.33-.27-1.81-.75-.48-.48-.75-1.13-.75-1.81v-.7c0-.31-.17-.6-.44-.76-.27-.16-.6-.16-.87,0-.27,.16-.44,.45-.44,.76v.7c0,1.14,.46,2.24,1.27,3.05,.81,.81,1.91,1.26,3.05,1.27H14.35c1.14,0,2.24-.46,3.05-1.27,.81-.81,1.26-1.91,1.27-3.05v-.7c0-.23-.09-.45-.26-.62-.16-.16-.39-.26-.62-.26h0Z"/>
      <path class="cls-1" d="M9.33,0c-.23,0-.45,.09-.62,.26-.16,.16-.26,.39-.26,.62V11.91l-2.75-2.75c-.16-.17-.39-.26-.62-.26-.23,0-.46,.09-.62,.26s-.26,.39-.26,.62c0,.23,.1,.46,.26,.62l4.24,4.24h0s.02,.02,.03,.03h0s0,0,0,0l.02,.02h0s.03,.03,.03,.03h0s0,0,0,0c0,0,.02,.01,.03,.02h0c.12,.08,.25,.13,.4,.14h.04s.04,0,.04,0h.08s0,0,0,0h0c.14-.01,.28-.06,.4-.14h0s.02-.01,.03-.02h0s0,0,0,0l.03-.02h0s.02-.03,.02-.03h0s0,0,0,0c0,0,.02-.02,.03-.03h0s4.24-4.24,4.24-4.24c.22-.22,.3-.54,.22-.84-.08-.3-.32-.53-.62-.62-.3-.08-.62,0-.84,.22l-2.75,2.75V.87c0-.23-.09-.45-.26-.62s-.39-.26-.62-.26h0Z"/>
    </g>
  </g>
</svg>