<?xml version="1.0" encoding="UTF-8"?>
<svg id="Layer_2" data-name="Layer 2" xmlns="http://www.w3.org/2000/svg" xmlns:xlink="http://www.w3.org/1999/xlink" viewBox="0 0 1024 581.05">
  <defs>
    <style>
      .cls-1 {
        fill: url(#linear-gradient);
      }
    </style>
    <linearGradient id="linear-gradient" x1="100.69" y1="-100.69" x2="793.35" y2="591.97" gradientUnits="userSpaceOnUse">
      <stop offset="0" stop-color="#00bc70"/>
      <stop offset="1" stop-color="#00a19b"/>
    </linearGradient>
  </defs>
  <g id="Layer_1-2" data-name="Layer 1">
    <g>
      <path class="cls-1" d="M193.9,431.45l-69.34-141.9-40.45,41.73v100.17H0V0H84.11V235.63l104.01-120.06h102.08l-105.93,116.21,103.37,199.68h-93.74Z"/>
      <path class="cls-1" d="M353.1,295.34c2.57,47.5,29.54,78.33,70.63,78.33,26.97,0,50.72-13.49,56.5-35.32h86.03c-19.26,64.85-71.27,101.45-138.68,101.45-105.3,0-157.94-57.78-157.94-172.07,0-97.59,55.86-160.51,152.8-160.51s148.31,62.92,148.31,188.12h-217.65Zm131.62-52.65c-1.28-46.88-32.1-69.34-64.84-69.34s-61,25.68-64.2,69.34h129.05Z"/>
      <path class="cls-1" d="M599.61,431.45V0h83.47V431.45h-83.47Z"/>
      <path class="cls-1" d="M718.38,581.05V115.57h80.26l.64,38.52c19.91-32.1,49.44-46.86,87.95-46.86,79.62,0,136.76,62.92,136.76,169.5,0,95.66-48.16,163.08-129.7,163.08-39.16,0-69.98-16.05-93.74-49.44v190.68h-82.18Zm220.87-310.1c0-56.5-29.53-95.67-71.26-95.67s-70.62,37.24-70.62,90.53c0,68.7,23.75,102.73,69.98,102.73,48.78,0,71.9-32.74,71.9-97.58Z"/>
    </g>
  </g>
</svg>