<?xml version="1.0" encoding="UTF-8"?>
<svg id="Layer_2" data-name="Layer 2" xmlns="http://www.w3.org/2000/svg" viewBox="0 0 19.86 20">
  <defs>
    <style>
      .cls-1 {
        fill: #08080f;
      }
    </style>
  </defs>
  <g id="Header">
    <path class="cls-1" d="M7.32,0C9.34,0,11.17,.82,12.49,2.14c1.32,1.32,2.14,3.15,2.14,5.17,0,1.79-.65,3.44-1.72,4.71l6.68,6.52c.34,.33,.34,.86,.02,1.2-.33,.34-.86,.34-1.2,.02l-6.73-6.57c-1.22,.91-2.73,1.45-4.37,1.45-2.02,0-3.85-.82-5.17-2.14C.82,11.17,0,9.34,0,7.32S.82,3.47,2.14,2.14C3.47,.82,5.3,0,7.32,0h0Zm3.97,3.35c-1.02-1.02-2.42-1.65-3.97-1.65s-2.96,.63-3.97,1.65c-1.02,1.02-1.65,2.42-1.65,3.97s.63,2.96,1.65,3.97,2.42,1.65,3.97,1.65,2.96-.63,3.97-1.65,1.65-2.42,1.65-3.97c0-1.55-.63-2.96-1.65-3.97h0Z"/>
  </g>
</svg>